<?xml version="1.0" encoding="UTF-8" standalone="no"?>
<svg
   width="30"
   height="30"
   version="1.1"
   id="svg6"
   sodipodi:docname="loginGo.svg"
   inkscape:version="1.1.2 (0a00cf5339, 2022-02-04)"
   xmlns:inkscape="http://www.inkscape.org/namespaces/inkscape"
   xmlns:sodipodi="http://sodipodi.sourceforge.net/DTD/sodipodi-0.dtd"
   xmlns="http://www.w3.org/2000/svg"
   xmlns:svg="http://www.w3.org/2000/svg">
  <defs
     id="defs10" />
  <sodipodi:namedview
     id="namedview8"
     pagecolor="#ffffff"
     bordercolor="#666666"
     borderopacity="1.0"
     inkscape:pageshadow="2"
     inkscape:pageopacity="0.0"
     inkscape:pagecheckerboard="0"
     showgrid="false"
     inkscape:zoom="9.6785241"
     inkscape:cx="19.889396"
     inkscape:cy="14.10339"
     inkscape:window-width="1920"
     inkscape:window-height="1007"
     inkscape:window-x="0"
     inkscape:window-y="0"
     inkscape:window-maximized="1"
     inkscape:current-layer="svg6" />
  <path
     id="path2310"
     style="color:#000000;fill:#f9f9f9;stroke-linecap:round;stroke-linejoin:round;-inkscape-stroke:none;fill-opacity:1"
     d="m 17.440218,8.749941 a 1.15,1.15 0 0 0 -0.64063,0.3086 1.15,1.15 0 0 0 -0.0352,1.62695 l 3.51172,3.66211 H 6.1647779 a 1.15,1.15 0 0 0 -1.15039,1.15039 1.15,1.15 0 0 0 1.15039,1.14844 H 20.326888 l -3.24805,3.61719 a 1.15,1.15 0 0 0 0.0859,1.625 1.15,1.15 0 0 0 1.625,-0.0879 l 5.00195,-5.57227 a 1.150115,1.150115 0 0 0 -0.0254,-1.56445 l -5.3418,-5.57032 a 1.15,1.15 0 0 0 -0.98437,-0.34375 z" />
</svg>
